<svg xmlns="http://www.w3.org/2000/svg" width="20" height="20" viewBox="0 0 20 20">
    <defs>
        <style>
            .cls-1{fill:none}.cls-2{fill:#fff}
        </style>
    </defs>
    <g id="round-arrow_downward-24px" transform="rotate(-90 10 10)">
        <g id="Bounding_Boxes">
            <path id="Path_135" d="M0 0h20v20H0z" class="cls-1" data-name="Path 135"/>
        </g>
        <g id="Rounded" transform="translate(3.673 3.333)">
            <path id="Path_136" d="M9.9 4.833v9.308l-4.065-4.066a.84.84 0 0 0-1.183 0 .83.83 0 0 0 0 1.175l5.492 5.492a.83.83 0 0 0 1.175 0l5.491-5.492a.83.83 0 0 0 0-1.175.83.83 0 0 0-1.175 0l-4.067 4.067V4.833A.836.836 0 0 0 10.735 4a.836.836 0 0 0-.835.833z" class="cls-2" data-name="Path 136" transform="translate(-4.408 -4)"/>
        </g>
    </g>
</svg>
