<svg xmlns="http://www.w3.org/2000/svg" width="74.08" height="70" viewBox="0 0 74.08 70">
    <defs>
        <style>
            .cls-1{fill:#74a854}
        </style>
    </defs>
    <g id="Group_7" data-name="Group 7" transform="translate(-3006.6 114.7)">
        <path id="Path_142" d="M26.4-68.7q9.8 0 15.55 4.95A16.489 16.489 0 0 1 47.7-50.6a16.3 16.3 0 0 1-2.85 9.95 18.592 18.592 0 0 1-8.75 6.05v.2q6.5 2.2 9.65 6.3t3.15 10.6a17.164 17.164 0 0 1-2.85 9.7 18.971 18.971 0 0 1-7.95 6.7 26.931 26.931 0 0 1-11.6 2.4q-10.3 0-16.1-5.55T4.6-19.5h6.8q0 7.3 3.85 11.05T26.5-4.7q6.9 0 11.25-3.6a11.619 11.619 0 0 0 4.35-9.4q0-6.6-4.5-10.1t-12.9-3.5h-2.9v-5.9h2.9q7.6 0 11.95-3.5A11.441 11.441 0 0 0 41-50.1a11.362 11.362 0 0 0-4.1-9.15q-4.1-3.45-10.8-3.45-6.8 0-10.55 3.65T11.8-48.3H5.1q0-9.6 5.75-15t15.55-5.4z" class="cls-1" data-name="Path 142" transform="translate(3002 -46)"/>
        <path id="Path_141" d="M15.364 0v-16.376h-3.381v6.417H5.267v-6.417H1.886V0h3.381v-7.061h6.716V0zm19.6-2.9H32.89v-13.476H21.045c-.138 8.6-.736 11.684-1.61 13.478H17.48V3.68h3.22V0h11.04v3.68h3.22zm-5.451-10.58V-2.9h-6.559c.667-2 1.173-5.152 1.334-10.58zm24.472 5.29c0-4.255-2.668-6.739-7.429-7.015v-1.771h-3.293v1.776c-4.738.276-7.406 2.783-7.406 7.015s2.668 6.739 7.406 7.015V.6h3.289v-1.773c4.761-.276 7.429-2.76 7.429-7.015zm-7.433-4.21c2.507.276 3.933 1.771 3.933 4.209s-1.426 3.933-3.933 4.209zm-7.2 4.209c0-2.438 1.4-3.91 3.91-4.209v8.418c-2.506-.296-3.909-1.768-3.909-4.206zM68.931 0v-16.376H57.707c-.3 11.707-.943 13.662-3.128 13.662a2.063 2.063 0 0 1-.414-.046V0a3.859 3.859 0 0 0 1.127.138c3.841 0 5.267-2.093 5.658-13.616h4.6V0z" class="cls-1" data-name="Path 141" transform="matrix(0 -1 1 0 3077 -44)"/>
    </g>
</svg>
