<svg xmlns="http://www.w3.org/2000/svg" width="11.989" height="16" viewBox="0 0 11.989 16">
    <defs>
        <style>
            .cls-1{fill:#bcbcbc}
        </style>
    </defs>
    <path id="Path_131" d="M-1433.678 23.331V19.64H-1435v-1.478h1.322V7.766a11.083 11.083 0 0 1 1.934-.332q1.111-.1 2.071-.1a8.115 8.115 0 0 1 5.013 1.281 4.343 4.343 0 0 1 1.648 3.64 5.042 5.042 0 0 1-.481 2.3 3.915 3.915 0 0 1-1.373 1.534 6.239 6.239 0 0 1-2.186.847 14.7 14.7 0 0 1-2.919.263h-2.151v.966h3.767v1.475h-3.767v3.692zm2.6-14.592q-.607.057-1.041.1v7h1.969a15.871 15.871 0 0 0 2.277-.149 5.064 5.064 0 0 0 1.74-.55 2.779 2.779 0 0 0 1.11-1.11 3.739 3.739 0 0 0 .389-1.808 3.264 3.264 0 0 0-.423-1.74 3.129 3.129 0 0 0-1.122-1.087 4.911 4.911 0 0 0-1.591-.561 10.325 10.325 0 0 0-1.831-.16q-.872.008-1.479.065z" class="cls-1" data-name="Path 131" transform="translate(1435 -7.331)"/>
</svg>
